<svg width="960" height="720" viewBox="0 0 960 720" fill="none" xmlns="http://www.w3.org/2000/svg">
  <rect width="960" height="720" rx="40" fill="#F8FAFC"/>
  <circle cx="710" cy="110" r="180" fill="#DBEAFE"/>
  <circle cx="780" cy="520" r="210" fill="#E2E8F0"/>
  <circle cx="190" cy="180" r="110" fill="#F1F5F9"/>
  <rect x="88" y="96" width="360" height="520" rx="28" fill="white" stroke="#CBD5E1"/>
  <rect x="124" y="142" width="180" height="14" rx="7" fill="#0F172A"/>
  <rect x="124" y="176" width="124" height="10" rx="5" fill="#94A3B8"/>
  <rect x="124" y="236" width="288" height="92" rx="24" fill="#EFF6FF"/>
  <rect x="148" y="264" width="146" height="10" rx="5" fill="#0F172A"/>
  <rect x="148" y="292" width="218" height="10" rx="5" fill="#64748B"/>
  <rect x="124" y="360" width="132" height="120" rx="24" fill="#F8FAFC" stroke="#E2E8F0"/>
  <rect x="278" y="360" width="134" height="120" rx="24" fill="#F8FAFC" stroke="#E2E8F0"/>
  <rect x="124" y="512" width="288" height="54" rx="20" fill="#0F172A"/>
  <rect x="508" y="128" width="324" height="160" rx="28" fill="white" stroke="#CBD5E1"/>
  <rect x="540" y="170" width="132" height="12" rx="6" fill="#0F172A"/>
  <rect x="540" y="202" width="230" height="10" rx="5" fill="#94A3B8"/>
  <rect x="540" y="236" width="164" height="20" rx="10" fill="#FEF3C7"/>
  <rect x="508" y="326" width="324" height="230" rx="28" fill="#0F172A"/>
  <rect x="540" y="366" width="124" height="12" rx="6" fill="white"/>
  <rect x="540" y="396" width="220" height="10" rx="5" fill="#CBD5E1"/>
  <rect x="540" y="444" width="120" height="72" rx="20" fill="#1E293B"/>
  <rect x="680" y="444" width="120" height="72" rx="20" fill="#1E293B"/>
  <circle cx="830" cy="154" r="22" fill="#2563EB"/>
  <circle cx="829" cy="457" r="26" fill="#60A5FA"/>
</svg>
